<svg width="100%" height="100%" viewBox="0 0 930 319" fill="none" xmlns="http://www.w3.org/2000/svg">
<path d="M0 60C0 26.8629 26.8629 0 60 0H870C903.137 0 930 26.8629 930 60V112.25L921.21 122.655C902.322 145.013 902.322 177.737 921.21 200.095L930 210.5V259C930 292.137 903.137 319 870 319H60C26.8629 319 0 292.137 0 259L0 210.5L9.15252 199.26C27.1165 177.197 27.1165 145.553 9.15252 123.49L0 112.25L0 60Z" fill="#4D8506"/>
<path d="M0.5 60C0.5 27.1391 27.1391 0.5 60 0.5H870C902.861 0.5 929.5 27.1391 929.5 60V112.067L920.828 122.332C901.783 144.877 901.783 177.873 920.828 200.418L929.5 210.683V259C929.5 291.861 902.861 318.5 870 318.5H60C27.1391 318.5 0.5 291.861 0.5 259V210.678L9.54024 199.575C27.654 177.329 27.654 145.421 9.54024 123.175L0.5 112.072V60Z" stroke="white" stroke-opacity="0.5"/>
</svg>
