<svg width="144" height="102" viewBox="0 0 144 102" fill="none" xmlns="http://www.w3.org/2000/svg">
<path d="M0.0150545 56.037C1.04619 55.0979 2.13815 54.2292 3.28367 53.4366C15.3941 46.0514 27.5197 38.7017 39.6603 31.3875C40.5339 30.8552 41.3849 30.285 42.5749 29.5322C40.9707 28.4526 39.5623 27.5402 38.2142 26.5974C35.4653 24.7042 35.3598 22.6058 38.0787 20.8343C48.6226 13.9914 59.2117 7.14857 69.8912 0.495802C70.5646 0.169455 71.302 0 72.049 0C72.7959 0 73.5333 0.169455 74.2067 0.495802C84.8862 7.15618 95.4602 13.9914 106.019 20.8419C108.648 22.5526 108.587 24.6435 106.064 26.453C105.379 26.9548 104.641 27.3654 103.941 27.8368C103.24 28.3082 102.577 28.8024 101.546 29.5399C103.639 30.8476 105.485 32.0261 107.36 33.159C118.597 39.9815 129.838 46.794 141.085 53.5963C144.964 55.9457 144.979 57.9986 141.085 60.386C119.089 73.9094 97.0946 87.4406 75.1029 100.979C72.8812 102.348 71.1489 102.333 68.9272 100.979C47.533 87.7346 26.0987 74.5557 4.62426 61.4428C3.0502 60.4772 1.5364 59.3899 0 58.3559L0.0150545 56.037ZM135.444 56.9949C125.571 51.0112 116.202 45.2937 106.757 39.6902C106.315 39.5339 105.845 39.4774 105.379 39.5247C104.913 39.572 104.463 39.7219 104.061 39.9639C99.8887 42.4957 95.7766 45.1796 91.7021 47.8255C87.0678 50.7958 82.4385 53.7763 77.8142 56.7668C78.0854 57.1622 78.1607 57.3675 78.3038 57.4588C87.0628 63.1155 95.8067 68.795 104.664 74.3377C105.349 74.7711 106.825 74.5202 107.639 74.064C110.907 72.2241 114.063 70.1788 117.264 68.202L135.444 56.9949ZM66.6226 56.9949C57.3439 51.0188 48.5473 45.3012 39.6226 39.7053C38.9975 39.3099 37.6494 39.5305 36.9188 39.9562C32.4452 42.5337 28.0469 45.2785 23.6335 47.932L8.72887 56.9797C10.0243 57.8161 10.9431 58.4319 11.8921 59.0173C18.9264 63.3512 26.149 67.3808 32.9347 72.11C36.836 74.8167 39.6678 74.7939 43.5389 72.0187C50.8594 66.7726 58.6017 62.1499 66.6226 56.9797V56.9949ZM99.6778 35.7821C97.4184 33.2807 95.5356 33.045 92.9372 34.8469C87.0778 38.907 80.9397 42.5565 74.9975 46.495C72.9113 47.8787 71.1866 47.8863 69.0929 46.495C63.1506 42.5413 57.0427 38.8918 51.1607 34.8241C48.5397 33.007 46.687 33.3035 44.6686 35.5008C44.8268 35.7365 44.9247 36.0406 45.1356 36.1699C53.7289 41.7202 62.3146 47.2704 70.9607 52.7371C71.3114 52.9144 71.6982 53.0067 72.0904 53.0067C72.4826 53.0067 72.8694 52.9144 73.2201 52.7371C81.9791 47.1564 90.723 41.5225 99.6778 35.7669V35.7821Z" fill="white" fill-opacity="0.5"/>
</svg>
