<svg width="222" height="140" viewBox="0 0 222 140" fill="none" xmlns="http://www.w3.org/2000/svg">
<path fill-rule="evenodd" clip-rule="evenodd" d="M207.212 83.236C205.606 79.3868 203.212 75.9153 200.186 73.0441L199.506 72.4265C199.24 72.2182 199.037 71.9413 198.917 71.6257C198.797 71.3101 198.766 70.9679 198.826 70.6358C199.543 63.9865 198.136 57.2809 194.807 51.4797C191.477 45.6785 186.396 41.0792 180.291 38.3409C179.803 38.1411 179.363 37.8395 179 37.4562C178.638 37.0728 178.362 36.6165 178.19 36.1179C175.688 29.9327 170.922 24.9322 164.862 22.1334C158.802 19.3347 151.903 18.9477 145.568 21.0512C144.449 21.4518 143.226 21.4518 142.108 21.0512C138.328 19.7232 134.284 19.3216 130.317 19.8804C126.349 20.4392 122.575 21.9418 119.309 24.2621C118.777 24.2621 118.468 23.7213 118.176 23.2105C118.061 23.0097 117.948 22.8135 117.826 22.6567C114.498 18.1277 109.796 14.7924 104.42 13.1461C99.0443 11.4997 93.2802 11.6301 87.9842 13.5178C83.9302 14.9958 80.2836 17.4108 77.3415 20.5659L77.2993 20.6112C74.3788 23.7573 72.2396 27.5463 71.0552 31.672C74.5946 32.1106 78.0176 33.101 81.2076 34.5865C84.7037 36.2147 87.92 38.4378 90.7027 41.1814C91.0435 41.6182 91.5246 41.9243 92.0648 42.048C92.605 42.1717 93.1712 42.1056 93.6683 41.8607C100.421 39.3557 107.809 39.1284 114.704 41.2134C118.648 42.4061 122.307 44.318 125.508 46.8268C130.057 49.2279 134.068 52.5734 137.259 56.6624C137.516 56.6639 137.773 56.6495 138.03 56.6187C142.067 56.3651 146.115 56.8892 149.955 58.1625C153.392 59.4732 156.605 61.2845 159.495 63.53C164.464 65.6663 168.979 68.7442 172.787 72.5986L174.43 74.4461L174.84 74.9935C175.035 75.1425 175.197 75.3286 175.319 75.541L176.209 76.6358L176.619 77.2517L177.851 79.0308C178.604 80.3309 179.219 81.5627 179.835 82.8628L179.839 82.8702C180.451 84.1629 180.452 84.1641 180.725 84.7788L181.204 86.0789C181.496 86.7241 181.747 87.3868 181.957 88.0633L182.367 89.3634C183.995 94.749 184.393 100.431 183.531 105.991C182.71 113.214 179.866 120.059 175.326 125.737C174.789 126.408 174.231 127.06 173.653 127.692H179.735C184.267 127.711 188.745 126.704 192.832 124.747C196.92 122.79 200.511 119.934 203.336 116.392C207.396 111.074 209.57 104.556 209.515 97.8672V95.3972C209.603 91.2275 208.819 87.0853 207.212 83.236ZM57.6925 34.7304C52.9112 35.926 48.3777 38.0467 44.3605 41.0052C37.7647 45.8627 32.9124 52.7192 30.5258 60.5553C30.4025 61.0073 30.1598 61.4175 29.8225 61.7428C29.4852 62.068 29.0662 62.2961 28.6101 62.4029C20.5804 64.376 13.3892 68.8585 8.08173 75.1988C2.80876 81.8816 -0.0381516 90.1572 0.0072993 98.6696V102.433C-0.165672 111.129 2.74033 119.607 8.21204 126.368C13.6837 133.13 21.369 137.74 29.9102 139.384C31.7754 139.795 33.6799 140.002 35.5898 140H149.522C150.159 139.909 150.794 139.807 151.427 139.692H157.863H157.906H157.948H157.991H158.034H158.076H158.119H158.162H158.205H158.247H158.29H158.333H158.375H158.418H158.461H158.504H158.546H158.589H158.632H158.674H158.717H158.76H158.803H158.845H158.888H158.931H158.974H159.016H159.059H159.102H159.144H159.187H159.23H159.273H159.315H159.358H159.401H159.443H159.486H159.529H159.572H159.614H159.657H159.7H159.742H159.785H159.828H159.871H159.913H159.956H159.999H160.042H160.084H160.127H160.17H160.212H160.255H160.298H160.341H160.383H160.426H160.469H160.511H160.554H160.597H160.64H160.682H160.725H160.768H160.81H160.853H160.896H160.939H160.981H161.024H161.067H161.109H161.152H161.195H161.238H161.28H161.323H161.366H161.408H161.451H161.494H161.537H161.579H161.622H161.665H161.708H161.75H161.793H161.836H161.878H161.921H161.964H162.007H162.049H162.092H162.135H162.177H162.22H162.263H162.306H162.348H162.391H162.434H162.476H162.519H162.562H162.605H162.647H162.69H162.733H162.775H162.818H162.861H162.904H162.946H162.989H163.032H163.075H163.117H163.16H163.203H163.245H163.288H163.331H163.374H163.416H163.459H163.502H163.544H163.587H163.63H163.673H163.715H163.758H163.801H163.843H163.886H163.929H163.972H164.014H164.057H164.1H164.143H164.185H164.228H164.271H164.313H164.356H164.399H164.442H164.484H164.527H164.57H164.612H164.655H164.698H164.741H164.783H164.826H164.869H164.911H164.954H164.997H165.04H165.082H165.125H165.168H165.21H165.253H165.296H165.339H165.381H165.424H165.467H165.51H165.552H165.595H165.638H165.68H165.723H165.766H165.809H165.851H165.894H165.937H165.979H166.022H166.065H166.108H166.15H166.193H166.236H166.278H166.321H166.364H166.407H166.449H166.492H166.535H166.577H166.62H166.663H166.706H166.748H166.791H166.834H166.877H166.919H166.962H167.005H167.047H167.09H167.133H167.176H167.218H167.261H167.304H167.346H167.389H167.432H167.475H167.517H167.56H167.603H167.645H167.688H167.731H167.774H167.816H167.859H167.902H167.945H167.987H168.03H168.073H168.115H168.158H168.201H168.244H168.286H168.329H168.372H168.414H168.457H168.5H168.543H168.585H168.628H168.671H168.713H168.756H168.799H168.842H168.884H168.927H168.97H169.012H169.055H169.098H169.141H169.183H169.226H169.269H169.312H169.354H169.397H169.44H169.482H169.525H169.568H169.611H169.653H169.696H169.739H169.781H169.824H169.867H169.91H169.952H169.995H170.038H170.08H170.123H170.166H170.209H170.251H170.294H170.337H170.38H170.422H170.465H170.508H170.55H170.593H170.636H170.679H170.721H170.764H170.807H170.849H170.892H170.935H170.978H171.02H171.063H171.106H171.148H171.191H171.234H171.277H171.319H171.362H171.405H171.447H171.49H171.533H171.576H171.618H171.661H171.704H171.747H171.789H171.832H171.875H171.917H171.96H172.003H172.046H172.088H172.131H172.174H172.216H172.259H172.302H172.345H172.387H172.43H172.473H172.515H172.558H172.601H172.644H172.686H172.729H172.772H172.814H172.857H172.9H172.943H172.985H173.028H173.071H173.114H173.156H173.199H173.242H173.284H173.327H173.37H173.413H173.455H173.498H173.541H173.583H173.626H173.669H173.712H173.754H173.797H173.84H173.882H173.925H173.968H174.011H174.053H174.096H174.139H174.181H174.224H174.267H174.31H174.352H174.395H174.438H174.481H174.523H174.566H174.609H174.651H174.694H174.737H174.78H174.822H174.865H174.908H174.95H174.993H175.036H175.079H175.121H175.164H175.207H175.249H175.292H175.335H175.378H175.42H175.463H175.506H175.548H175.591H175.634H175.677H175.719H175.762H175.805H175.848H175.89H175.933H175.976H176.018H176.061H176.104H176.147H176.189H176.232H176.275H176.317H176.36H176.403H176.446H176.488H176.531H176.574H176.616H176.659H176.702H176.745H176.787H176.83H176.873H176.915H176.958H177.001H177.044H177.086H177.129H177.172H177.215H177.257H177.3H177.343H177.385H177.428H177.471H177.514H177.556H177.599H177.642H177.684H177.727H177.77H177.813H177.855H177.898H177.941H177.983H178.026H178.069H178.112H178.154H178.197H178.24H178.283H178.325H178.368H178.411H178.453H178.496H178.539H178.582H178.624H178.667H178.71H178.752H178.795H178.838H178.881H178.923H178.966H179.009H179.051H179.094H179.137H179.18H179.222H179.265H179.308H179.35H179.393H179.436H179.479H179.521H179.564H179.607H179.65H179.692H179.711C186.045 139.714 192.302 138.306 198.014 135.57C203.735 132.831 208.761 128.834 212.717 123.876L212.797 123.775L212.875 123.673C218.541 116.251 221.58 107.157 221.515 97.8209V95.5135C221.618 89.7187 220.52 83.9645 218.286 78.614C216.511 74.36 214.05 70.4357 211.008 66.9939C210.966 59.4791 208.983 52.0724 205.214 45.5063C201.148 38.4222 195.189 32.6389 188.033 28.7866C184.16 21.081 177.778 14.8806 169.893 11.2392C161.73 7.46876 152.521 6.70307 143.883 9.03227C138.939 7.63449 133.748 7.27872 128.643 7.99769C126.385 8.31568 124.17 8.84035 122.023 9.56107C117.966 5.97648 113.169 3.2753 107.934 1.67208C100.091 -0.729853 91.6817 -0.539608 83.9553 2.21435L83.9145 2.2289L83.8737 2.24374C78.043 4.36957 72.7976 7.84328 68.5653 12.3819C64.333 16.9205 61.2335 22.3956 59.521 28.3608L57.6925 34.7304Z" fill="white"/>
</svg>
