<svg width="25" height="23" viewBox="0 0 25 23" fill="none" xmlns="http://www.w3.org/2000/svg">
<path d="M17.8674 14.4654H16.7381L16.3379 14.1103C17.7871 12.5639 18.5836 10.5896 18.582 8.54774C18.582 6.85716 18.0371 5.20454 17.0162 3.79887C15.9953 2.39321 14.5443 1.29762 12.8465 0.650662C11.1488 0.0037036 9.28072 -0.16557 7.47844 0.164246C5.67616 0.494063 4.02065 1.30816 2.72128 2.50358C1.42191 3.699 0.537025 5.22206 0.178529 6.88016C-0.179968 8.53826 0.00402566 10.2569 0.707241 11.8188C1.41046 13.3807 2.60131 14.7157 4.12921 15.6549C5.65711 16.5942 7.45343 17.0955 9.29103 17.0955C11.5923 17.0955 13.7078 16.3196 15.3373 15.0309L15.7233 15.3991V16.438L22.8702 23L25 21.0406L17.8674 14.4654ZM9.29103 14.4654C5.73185 14.4654 2.85878 11.8222 2.85878 8.54774C2.85878 5.2733 5.73185 2.63008 9.29103 2.63008C12.8502 2.63008 15.7233 5.2733 15.7233 8.54774C15.7233 11.8222 12.8502 14.4654 9.29103 14.4654Z" fill="#837655"/>
</svg>
